<svg xmlns="http://www.w3.org/2000/svg" xmlns:xlink="http://www.w3.org/1999/xlink" xmlns:s="https://github.com/nturley/netlistsvg" width="315" height="261.5">
  <style>g {
    fill:none;
    stroke: #fff;
  }
  text {
    fill:#fff;
    stroke:none;
    font-size:10px;
    font-weight: bold;
    font-family: "Courier New", monospace;
  }
  line {
    stroke: #fff;
    stroke-linecap: round;
  }
  .nodelabel {
    text-anchor: middle;
  }
  .inputPortLabel {
    text-anchor: end;
  }
  .splitjoinBody {
    fill:#fff;
  } </style>
  <g s:type="and" transform="translate(77,194.5)" s:width="30" s:height="25" id="cell_$and$ChemicalSafety_Dataflow.v:20$2">
    <s:alias val="$and"/>
    <s:alias val="$logic_and"/>
    <s:alias val="$_AND_"/>
    <path d="M0,0 L0,25 L15,25 A15 12.5 0 0 0 15,0 Z" fill="#009688" class="cell_$and$ChemicalSafety_Dataflow.v:20$2"/>
    <g s:x="0" s:y="5" s:pid="A"/>
    <g s:x="0" s:y="20" s:pid="B"/>
    <g s:x="30" s:y="12.5" s:pid="Y"/>
  </g>
  <g s:type="and" transform="translate(208,27)" s:width="30" s:height="25" id="cell_$and$ChemicalSafety_Dataflow.v:24$4">
    <s:alias val="$and"/>
    <s:alias val="$logic_and"/>
    <s:alias val="$_AND_"/>
    <path d="M0,0 L0,25 L15,25 A15 12.5 0 0 0 15,0 Z" fill="#009688" class="cell_$and$ChemicalSafety_Dataflow.v:24$4"/>
    <g s:x="0" s:y="5" s:pid="A"/>
    <g s:x="0" s:y="20" s:pid="B"/>
    <g s:x="30" s:y="12.5" s:pid="Y"/>
  </g>
  <g s:type="and" transform="translate(142.66666666666666,224.5)" s:width="30" s:height="25" id="cell_$and$ChemicalSafety_Dataflow.v:28$6">
    <s:alias val="$and"/>
    <s:alias val="$logic_and"/>
    <s:alias val="$_AND_"/>
    <path d="M0,0 L0,25 L15,25 A15 12.5 0 0 0 15,0 Z" fill="#009688" class="cell_$and$ChemicalSafety_Dataflow.v:28$6"/>
    <g s:x="0" s:y="5" s:pid="A"/>
    <g s:x="0" s:y="20" s:pid="B"/>
    <g s:x="30" s:y="12.5" s:pid="Y"/>
  </g>
  <g s:type="not" transform="translate(143,22)" s:width="30" s:height="20" id="cell_$not$ChemicalSafety_Dataflow.v:18$1">
    <s:alias val="$_NOT_"/>
    <s:alias val="$not"/>
    <s:alias val="$logic_not"/>
    <path d="M0,0 L0,20 L20,10 Z" fill="#009688" class="cell_$not$ChemicalSafety_Dataflow.v:18$1"/>
    <circle cx="24" cy="10" r="3" fill="#009688" class="cell_$not$ChemicalSafety_Dataflow.v:18$1"/>
    <g s:x="-1" s:y="10" s:pid="A"/>
    <g s:x="27" s:y="10" s:pid="Y"/>
  </g>
  <g s:type="or" transform="translate(142.66666666666666,144.5)" s:width="30" s:height="25" id="cell_$or$ChemicalSafety_Dataflow.v:22$3">
    <s:alias val="$or"/>
    <s:alias val="$logic_or"/>
    <s:alias val="$_OR_"/>
    <path d="M0,25 L0,25 L15,25 A15 12.5 0 0 0 15,0 L0,0 A30 25 0 0 1 0,25 Z" fill="#009688" class="cell_$or$ChemicalSafety_Dataflow.v:22$3"/>
    <g s:x="2" s:y="5" s:pid="A"/>
    <g s:x="2" s:y="20" s:pid="B"/>
    <g s:x="30" s:y="12.5" s:pid="Y"/>
  </g>
  <g s:type="or" transform="translate(142.66666666666666,84.5)" s:width="30" s:height="25" id="cell_$or$ChemicalSafety_Dataflow.v:26$5">
    <s:alias val="$or"/>
    <s:alias val="$logic_or"/>
    <s:alias val="$_OR_"/>
    <path d="M0,25 L0,25 L15,25 A15 12.5 0 0 0 15,0 L0,0 A30 25 0 0 1 0,25 Z" fill="#009688" class="cell_$or$ChemicalSafety_Dataflow.v:26$5"/>
    <g s:x="2" s:y="5" s:pid="A"/>
    <g s:x="2" s:y="20" s:pid="B"/>
    <g s:x="30" s:y="12.5" s:pid="Y"/>
  </g>
  <g s:type="or" transform="translate(208,92)" s:width="30" s:height="25" id="cell_$or$ChemicalSafety_Dataflow.v:30$7">
    <s:alias val="$or"/>
    <s:alias val="$logic_or"/>
    <s:alias val="$_OR_"/>
    <path d="M0,25 L0,25 L15,25 A15 12.5 0 0 0 15,0 L0,0 A30 25 0 0 1 0,25 Z" fill="#009688" class="cell_$or$ChemicalSafety_Dataflow.v:30$7"/>
    <g s:x="2" s:y="5" s:pid="A"/>
    <g s:x="2" s:y="20" s:pid="B"/>
    <g s:x="30" s:y="12.5" s:pid="Y"/>
  </g>
  <g s:type="inputExt" transform="translate(77,139.5)" s:width="30" s:height="20" id="cell_L">
    <text x="15" y="-4" class="nodelabel cell_L" s:attribute="ref">L</text>
    <s:alias val="$_inputExt_"/>
    <path d="M0,0 L0,20 L15,20 L30,10 L15,0 Z" fill="#3ba7ff" class="cell_L"/>
    <g s:x="30" s:y="10" s:pid="Y"/>
  </g>
  <g s:type="inputExt" transform="translate(12,189.5)" s:width="30" s:height="20" id="cell_T">
    <text x="15" y="-4" class="nodelabel cell_T" s:attribute="ref">T</text>
    <s:alias val="$_inputExt_"/>
    <path d="M0,0 L0,20 L15,20 L30,10 L15,0 Z" fill="#3ba7ff" class="cell_T"/>
    <g s:x="30" s:y="10" s:pid="Y"/>
  </g>
  <g s:type="inputExt" transform="translate(12,94.5)" s:width="30" s:height="20" id="cell_P">
    <text x="15" y="-4" class="nodelabel cell_P" s:attribute="ref">P</text>
    <s:alias val="$_inputExt_"/>
    <path d="M0,0 L0,20 L15,20 L30,10 L15,0 Z" fill="#3ba7ff" class="cell_P"/>
    <g s:x="30" s:y="10" s:pid="Y"/>
  </g>
  <g s:type="inputExt" transform="translate(77,22)" s:width="30" s:height="20" id="cell_M">
    <text x="15" y="-4" class="nodelabel cell_M" s:attribute="ref">M</text>
    <s:alias val="$_inputExt_"/>
    <path d="M0,0 L0,20 L15,20 L30,10 L15,0 Z" fill="#3ba7ff" class="cell_M"/>
    <g s:x="30" s:y="10" s:pid="Y"/>
  </g>
  <g s:type="outputExt" transform="translate(273,29.5)" s:width="30" s:height="20" id="cell_A">
    <text x="15" y="-4" class="nodelabel cell_A" s:attribute="ref">A</text>
    <s:alias val="$_outputExt_"/>
    <path d="M30,0 L30,20 L15,20 L0,10 L15,0 Z" fill="#83ff6d" class="cell_A"/>
    <g s:x="0" s:y="10" s:pid="A"/>
  </g>
  <g s:type="outputExt" transform="translate(273,94.5)" s:width="30" s:height="20" id="cell_V">
    <text x="15" y="-4" class="nodelabel cell_V" s:attribute="ref">V</text>
    <s:alias val="$_outputExt_"/>
    <path d="M30,0 L30,20 L15,20 L0,10 L15,0 Z" fill="#83ff6d" class="cell_V"/>
    <g s:x="0" s:y="10" s:pid="A"/>
  </g>
  <line x1="42" x2="77" y1="199.5" y2="199.5" class="net_3 width_1" style="stroke-width: 1"/>
  <line x1="42" x2="52" y1="199.5" y2="199.5" class="net_3 width_1" style="stroke-width: 1"/>
  <line x1="52" x2="52" y1="199.5" y2="229.5" class="net_3 width_1" style="stroke-width: 1"/>
  <circle cx="52" cy="199.5" r="2" style="fill:#FFF" class="net_3 width_1"/>
  <line x1="52" x2="142.66666666666666" y1="229.5" y2="229.5" class="net_3 width_1" style="stroke-width: 1"/>
  <line x1="42" x2="62" y1="104.5" y2="104.5" class="net_4 width_1" style="stroke-width: 1"/>
  <line x1="62" x2="62" y1="104.5" y2="214.5" class="net_4 width_1" style="stroke-width: 1"/>
  <circle cx="62" cy="104.5" r="2" style="fill:#FFF" class="net_4 width_1"/>
  <line x1="62" x2="77" y1="214.5" y2="214.5" class="net_4 width_1" style="stroke-width: 1"/>
  <line x1="42" x2="144.66666666666666" y1="104.5" y2="104.5" class="net_4 width_1" style="stroke-width: 1"/>
  <line x1="170" x2="208" y1="32" y2="32" class="net_9 width_1" style="stroke-width: 1"/>
  <line x1="172.66666666666666" x2="183" y1="157" y2="157" class="net_10 width_1" style="stroke-width: 1"/>
  <line x1="183" x2="183" y1="157" y2="47" class="net_10 width_1" style="stroke-width: 1"/>
  <line x1="183" x2="208" y1="47" y2="47" class="net_10 width_1" style="stroke-width: 1"/>
  <line x1="107" x2="127" y1="149.5" y2="149.5" class="net_2 width_1" style="stroke-width: 1"/>
  <line x1="127" x2="127" y1="149.5" y2="244.5" class="net_2 width_1" style="stroke-width: 1"/>
  <circle cx="127" cy="149.5" r="2" style="fill:#FFF" class="net_2 width_1"/>
  <line x1="127" x2="142.66666666666666" y1="244.5" y2="244.5" class="net_2 width_1" style="stroke-width: 1"/>
  <line x1="107" x2="144.66666666666666" y1="149.5" y2="149.5" class="net_2 width_1" style="stroke-width: 1"/>
  <line x1="107" x2="142" y1="32" y2="32" class="net_5 width_1" style="stroke-width: 1"/>
  <line x1="107" x2="117" y1="32" y2="32" class="net_5 width_1" style="stroke-width: 1"/>
  <line x1="117" x2="117" y1="32" y2="89.5" class="net_5 width_1" style="stroke-width: 1"/>
  <circle cx="117" cy="32" r="2" style="fill:#FFF" class="net_5 width_1"/>
  <line x1="117" x2="144.66666666666666" y1="89.5" y2="89.5" class="net_5 width_1" style="stroke-width: 1"/>
  <line x1="107" x2="117" y1="207" y2="207" class="net_8 width_1" style="stroke-width: 1"/>
  <line x1="117" x2="117" y1="207" y2="164.5" class="net_8 width_1" style="stroke-width: 1"/>
  <line x1="117" x2="144.66666666666666" y1="164.5" y2="164.5" class="net_8 width_1" style="stroke-width: 1"/>
  <line x1="172.66666666666666" x2="210" y1="97" y2="97" class="net_12 width_1" style="stroke-width: 1"/>
  <line x1="172.66666666666666" x2="193" y1="237" y2="237" class="net_11 width_1" style="stroke-width: 1"/>
  <line x1="193" x2="193" y1="237" y2="112" class="net_11 width_1" style="stroke-width: 1"/>
  <line x1="193" x2="210" y1="112" y2="112" class="net_11 width_1" style="stroke-width: 1"/>
  <line x1="238" x2="273" y1="39.5" y2="39.5" class="net_6 width_1" style="stroke-width: 1"/>
  <line x1="238" x2="273" y1="104.5" y2="104.5" class="net_7 width_1" style="stroke-width: 1"/>
</svg>
