<svg xmlns="http://www.w3.org/2000/svg" xmlns:xlink="http://www.w3.org/1999/xlink" xmlns:s="https://github.com/nturley/netlistsvg" width="425" height="360.5">
  <style>g {
    fill:none;
    stroke: #fff;
  }
  text {
    fill:#fff;
    stroke:none;
    font-size:10px;
    font-weight: bold;
    font-family: "Courier New", monospace;
  }
  line {
    stroke: #fff;
    stroke-linecap: round;
  }
  .nodelabel {
    text-anchor: middle;
  }
  .inputPortLabel {
    text-anchor: end;
  }
  .splitjoinBody {
    fill:#fff;
  } </style>
  <g s:type="generic" transform="translate(200.5,237.5)" s:width="30" s:height="40" id="cell_u1_not_m">
    <text x="15" y="-4" class="nodelabel cell_u1_not_m" s:attribute="ref">inv_gate</text>
    <rect width="30" height="20" s:generic="body" fill="#c782ff" rx="0" class="cell_u1_not_m"/>
    <g transform="translate(0,10)" s:x="0" s:y="10" s:pid="in0" id="port_u1_not_m~i">
      <text x="-3" y="-4" class="inputPortLabel cell_u1_not_m">i</text>
    </g>
    <g transform="translate(30,10)" s:x="30" s:y="10" s:pid="out0" id="port_u1_not_m~o">
      <text x="5" y="-4" style="fill:#FFF; stroke:none" class="cell_u1_not_m">o</text>
    </g>
  </g>
  <g s:type="generic" transform="translate(90,150)" s:width="30" s:height="40" id="cell_u2_and_tp">
    <text x="15" y="-4" class="nodelabel cell_u2_and_tp" s:attribute="ref">and2_gate</text>
    <rect width="30" height="40" s:generic="body" fill="#c782ff" rx="0" class="cell_u2_and_tp"/>
    <g transform="translate(0,10)" s:x="0" s:y="10" s:pid="in0" id="port_u2_and_tp~i1">
      <text x="-3" y="-4" class="inputPortLabel cell_u2_and_tp">i1</text>
    </g>
    <g transform="translate(0,30)" s:x="0" s:y="10" s:pid="in0" id="port_u2_and_tp~i2">
      <text x="-3" y="-4" class="inputPortLabel cell_u2_and_tp">i2</text>
    </g>
    <g transform="translate(30,10)" s:x="30" s:y="10" s:pid="out0" id="port_u2_and_tp~o">
      <text x="5" y="-4" style="fill:#FFF; stroke:none" class="cell_u2_and_tp">o</text>
    </g>
  </g>
  <g s:type="generic" transform="translate(192,130)" s:width="30" s:height="40" id="cell_u3_or_l_tp">
    <text x="15" y="-4" class="nodelabel cell_u3_or_l_tp" s:attribute="ref">or2_gate</text>
    <rect width="30" height="40" s:generic="body" fill="#c782ff" rx="0" class="cell_u3_or_l_tp"/>
    <g transform="translate(0,10)" s:x="0" s:y="10" s:pid="in0" id="port_u3_or_l_tp~i1">
      <text x="-3" y="-4" class="inputPortLabel cell_u3_or_l_tp">i1</text>
    </g>
    <g transform="translate(0,30)" s:x="0" s:y="10" s:pid="in0" id="port_u3_or_l_tp~i2">
      <text x="-3" y="-4" class="inputPortLabel cell_u3_or_l_tp">i2</text>
    </g>
    <g transform="translate(30,10)" s:x="30" s:y="10" s:pid="out0" id="port_u3_or_l_tp~o">
      <text x="5" y="-4" style="fill:#FFF; stroke:none" class="cell_u3_or_l_tp">o</text>
    </g>
  </g>
  <g s:type="generic" transform="translate(300,237.5)" s:width="30" s:height="40" id="cell_u4_and_a">
    <text x="15" y="-4" class="nodelabel cell_u4_and_a" s:attribute="ref">and2_gate</text>
    <rect width="30" height="40" s:generic="body" fill="#c782ff" rx="0" class="cell_u4_and_a"/>
    <g transform="translate(0,10)" s:x="0" s:y="10" s:pid="in0" id="port_u4_and_a~i1">
      <text x="-3" y="-4" class="inputPortLabel cell_u4_and_a">i1</text>
    </g>
    <g transform="translate(0,30)" s:x="0" s:y="10" s:pid="in0" id="port_u4_and_a~i2">
      <text x="-3" y="-4" class="inputPortLabel cell_u4_and_a">i2</text>
    </g>
    <g transform="translate(30,10)" s:x="30" s:y="10" s:pid="out0" id="port_u4_and_a~o">
      <text x="5" y="-4" style="fill:#FFF; stroke:none" class="cell_u4_and_a">o</text>
    </g>
  </g>
  <g s:type="generic" transform="translate(197.66666666666666,42)" s:width="30" s:height="40" id="cell_u5_and_tl">
    <text x="15" y="-4" class="nodelabel cell_u5_and_tl" s:attribute="ref">and2_gate</text>
    <rect width="30" height="40" s:generic="body" fill="#c782ff" rx="0" class="cell_u5_and_tl"/>
    <g transform="translate(0,10)" s:x="0" s:y="10" s:pid="in0" id="port_u5_and_tl~i1">
      <text x="-3" y="-4" class="inputPortLabel cell_u5_and_tl">i1</text>
    </g>
    <g transform="translate(0,30)" s:x="0" s:y="10" s:pid="in0" id="port_u5_and_tl~i2">
      <text x="-3" y="-4" class="inputPortLabel cell_u5_and_tl">i2</text>
    </g>
    <g transform="translate(30,10)" s:x="30" s:y="10" s:pid="out0" id="port_u5_and_tl~o">
      <text x="5" y="-4" style="fill:#FFF; stroke:none" class="cell_u5_and_tl">o</text>
    </g>
  </g>
  <g s:type="generic" transform="translate(197.66666666666666,305.5)" s:width="30" s:height="40" id="cell_u6_or_mp">
    <text x="15" y="-4" class="nodelabel cell_u6_or_mp" s:attribute="ref">or2_gate</text>
    <rect width="30" height="40" s:generic="body" fill="#c782ff" rx="0" class="cell_u6_or_mp"/>
    <g transform="translate(0,10)" s:x="0" s:y="10" s:pid="in0" id="port_u6_or_mp~i1">
      <text x="-3" y="-4" class="inputPortLabel cell_u6_or_mp">i1</text>
    </g>
    <g transform="translate(0,30)" s:x="0" s:y="10" s:pid="in0" id="port_u6_or_mp~i2">
      <text x="-3" y="-4" class="inputPortLabel cell_u6_or_mp">i2</text>
    </g>
    <g transform="translate(30,10)" s:x="30" s:y="10" s:pid="out0" id="port_u6_or_mp~o">
      <text x="5" y="-4" style="fill:#FFF; stroke:none" class="cell_u6_or_mp">o</text>
    </g>
  </g>
  <g s:type="generic" transform="translate(301.6666666666667,22)" s:width="30" s:height="40" id="cell_u7_or_v">
    <text x="15" y="-4" class="nodelabel cell_u7_or_v" s:attribute="ref">or2_gate</text>
    <rect width="30" height="40" s:generic="body" fill="#c782ff" rx="0" class="cell_u7_or_v"/>
    <g transform="translate(0,10)" s:x="0" s:y="10" s:pid="in0" id="port_u7_or_v~i1">
      <text x="-3" y="-4" class="inputPortLabel cell_u7_or_v">i1</text>
    </g>
    <g transform="translate(0,30)" s:x="0" s:y="10" s:pid="in0" id="port_u7_or_v~i2">
      <text x="-3" y="-4" class="inputPortLabel cell_u7_or_v">i2</text>
    </g>
    <g transform="translate(30,10)" s:x="30" s:y="10" s:pid="out0" id="port_u7_or_v~o">
      <text x="5" y="-4" style="fill:#FFF; stroke:none" class="cell_u7_or_v">o</text>
    </g>
  </g>
  <g s:type="inputExt" transform="translate(90,62.5)" s:width="30" s:height="20" id="cell_L">
    <text x="15" y="-4" class="nodelabel cell_L" s:attribute="ref">L</text>
    <s:alias val="$_inputExt_"/>
    <path d="M0,0 L0,20 L15,20 L30,10 L15,0 Z" fill="#3ba7ff" class="cell_L"/>
    <g s:x="30" s:y="10" s:pid="Y"/>
  </g>
  <g s:type="inputExt" transform="translate(12,150.5)" s:width="30" s:height="20" id="cell_T">
    <text x="15" y="-4" class="nodelabel cell_T" s:attribute="ref">T</text>
    <s:alias val="$_inputExt_"/>
    <path d="M0,0 L0,20 L15,20 L30,10 L15,0 Z" fill="#3ba7ff" class="cell_T"/>
    <g s:x="30" s:y="10" s:pid="Y"/>
  </g>
  <g s:type="inputExt" transform="translate(12,326)" s:width="30" s:height="20" id="cell_P">
    <text x="15" y="-4" class="nodelabel cell_P" s:attribute="ref">P</text>
    <s:alias val="$_inputExt_"/>
    <path d="M0,0 L0,20 L15,20 L30,10 L15,0 Z" fill="#3ba7ff" class="cell_P"/>
    <g s:x="30" s:y="10" s:pid="Y"/>
  </g>
  <g s:type="inputExt" transform="translate(90,238)" s:width="30" s:height="20" id="cell_M">
    <text x="15" y="-4" class="nodelabel cell_M" s:attribute="ref">M</text>
    <s:alias val="$_inputExt_"/>
    <path d="M0,0 L0,20 L15,20 L30,10 L15,0 Z" fill="#3ba7ff" class="cell_M"/>
    <g s:x="30" s:y="10" s:pid="Y"/>
  </g>
  <g s:type="outputExt" transform="translate(383,238)" s:width="30" s:height="20" id="cell_A">
    <text x="15" y="-4" class="nodelabel cell_A" s:attribute="ref">A</text>
    <s:alias val="$_outputExt_"/>
    <path d="M30,0 L30,20 L15,20 L0,10 L15,0 Z" fill="#83ff6d" class="cell_A"/>
    <g s:x="0" s:y="10" s:pid="A"/>
  </g>
  <g s:type="outputExt" transform="translate(383,22.5)" s:width="30" s:height="20" id="cell_V">
    <text x="15" y="-4" class="nodelabel cell_V" s:attribute="ref">V</text>
    <s:alias val="$_outputExt_"/>
    <path d="M30,0 L30,20 L15,20 L0,10 L15,0 Z" fill="#83ff6d" class="cell_V"/>
    <g s:x="0" s:y="10" s:pid="A"/>
  </g>
  <line x1="120" x2="200.5" y1="248" y2="248" class="net_5 width_1" style="stroke-width: 1"/>
  <line x1="120" x2="154" y1="248" y2="248" class="net_5 width_1" style="stroke-width: 1"/>
  <line x1="154" x2="154" y1="248" y2="316" class="net_5 width_1" style="stroke-width: 1"/>
  <circle cx="154" cy="248" r="2" style="fill:#FFF" class="net_5 width_1"/>
  <line x1="154" x2="197.66666666666666" y1="316" y2="316" class="net_5 width_1" style="stroke-width: 1"/>
  <line x1="42" x2="90" y1="160.5" y2="160.5" class="net_3 width_1" style="stroke-width: 1"/>
  <line x1="42" x2="52" y1="160.5" y2="160.5" class="net_3 width_1" style="stroke-width: 1"/>
  <line x1="52" x2="52" y1="160.5" y2="41.5" class="net_3 width_1" style="stroke-width: 1"/>
  <line x1="52" x2="154" y1="41.5" y2="41.5" class="net_3 width_1" style="stroke-width: 1"/>
  <line x1="154" x2="154" y1="41.5" y2="52.5" class="net_3 width_1" style="stroke-width: 1"/>
  <circle cx="52" cy="160.5" r="2" style="fill:#FFF" class="net_3 width_1"/>
  <line x1="154" x2="197.66666666666666" y1="52.5" y2="52.5" class="net_3 width_1" style="stroke-width: 1"/>
  <line x1="42" x2="52" y1="336" y2="336" class="net_4 width_1" style="stroke-width: 1"/>
  <line x1="52" x2="52" y1="336" y2="180.5" class="net_4 width_1" style="stroke-width: 1"/>
  <circle cx="52" cy="336" r="2" style="fill:#FFF" class="net_4 width_1"/>
  <line x1="52" x2="90" y1="180.5" y2="180.5" class="net_4 width_1" style="stroke-width: 1"/>
  <line x1="42" x2="197.66666666666666" y1="336" y2="336" class="net_4 width_1" style="stroke-width: 1"/>
  <line x1="120" x2="154" y1="72.5" y2="72.5" class="net_2 width_1" style="stroke-width: 1"/>
  <line x1="154" x2="154" y1="72.5" y2="140.5" class="net_2 width_1" style="stroke-width: 1"/>
  <circle cx="154" cy="72.5" r="2" style="fill:#FFF" class="net_2 width_1"/>
  <line x1="154" x2="192" y1="140.5" y2="140.5" class="net_2 width_1" style="stroke-width: 1"/>
  <line x1="120" x2="197.66666666666666" y1="72.5" y2="72.5" class="net_2 width_1" style="stroke-width: 1"/>
  <line x1="121" x2="192" y1="160.5" y2="160.5" class="net_9 width_1" style="stroke-width: 1"/>
  <line x1="231.5" x2="300" y1="248" y2="248" class="net_8 width_1" style="stroke-width: 1"/>
  <line x1="223" x2="272" y1="140.5" y2="140.5" class="net_10 width_1" style="stroke-width: 1"/>
  <line x1="272" x2="272" y1="140.5" y2="268" class="net_10 width_1" style="stroke-width: 1"/>
  <line x1="272" x2="300" y1="268" y2="268" class="net_10 width_1" style="stroke-width: 1"/>
  <line x1="228.66666666666666" x2="262" y1="316" y2="316" class="net_12 width_1" style="stroke-width: 1"/>
  <line x1="262" x2="262" y1="316" y2="32.5" class="net_12 width_1" style="stroke-width: 1"/>
  <line x1="262" x2="301.6666666666667" y1="32.5" y2="32.5" class="net_12 width_1" style="stroke-width: 1"/>
  <line x1="228.66666666666666" x2="301.6666666666667" y1="52.5" y2="52.5" class="net_11 width_1" style="stroke-width: 1"/>
  <line x1="331" x2="383" y1="248" y2="248" class="net_6 width_1" style="stroke-width: 1"/>
  <line x1="332.6666666666667" x2="383" y1="32.5" y2="32.5" class="net_7 width_1" style="stroke-width: 1"/>
</svg>
